<?xml version="1.0" standalone="no"?>
<!DOCTYPE svg PUBLIC "-//W3C//DTD SVG 20010904//EN"
 "http://www.w3.org/TR/2001/REC-SVG-20010904/DTD/svg10.dtd">
<svg version="1.0" xmlns="http://www.w3.org/2000/svg"
 width="128.000000pt" height="128.000000pt" viewBox="0 0 128.000000 128.000000"
 preserveAspectRatio="xMidYMid meet">
<metadata>
Created by potrace 1.16, written by Peter Selinger 2001-2019
</metadata>
<g transform="translate(0.000000,128.000000) scale(0.100000,-0.100000)"
fill="#000000" stroke="none">
<path d="M660 1182 l0 -78 70 -11 c201 -31 354 -182 391 -385 43 -232 -133
-474 -376 -519 -190 -35 -399 71 -489 248 -36 71 -57 226 -40 290 6 21 8 22
35 8 41 -22 68 -19 73 8 9 46 27 347 21 357 -3 5 -14 10 -24 10 -16 0 -274
-144 -309 -172 -22 -19 -13 -46 26 -69 20 -12 38 -23 40 -25 2 -1 -4 -39 -14
-85 -67 -331 156 -661 489 -724 99 -19 139 -19 235 0 224 45 419 229 476 451
9 35 16 102 16 154 0 113 -19 191 -72 292 -52 101 -162 208 -268 260 -69 35
-195 68 -255 68 -25 0 -25 -1 -25 -78z"/>
<path d="M467 893 c-4 -3 -7 -90 -7 -193 0 -173 2 -189 23 -230 32 -64 79 -85
187 -85 72 0 91 4 124 24 67 42 76 76 76 299 l0 193 -62 -3 -63 -3 -5 -175
c-5 -182 -11 -209 -51 -231 -31 -16 -75 6 -88 43 -6 17 -11 106 -11 199 l0
169 -58 0 c-32 0 -62 -3 -65 -7z"/>
</g>
</svg>
